<svg xmlns="http://www.w3.org/2000/svg" viewBox="0 0 324.27 253.12"><defs><style>.cls-1,.cls-3{fill:#006eff;}.cls-1,.cls-2{opacity:0.8;}.cls-4{fill:#fff;}.cls-5,.cls-9{fill:#212121;}.cls-5{opacity:0.15;}.cls-6{fill:#424242;}.cls-7{fill:#e0e0e0;}.cls-8{fill:#bdbdbd;}.cls-9{opacity:0.64;}.cls-10{fill:#f5f5f5;}</style></defs><title>Asset 1404</title><g id="Layer_2" data-name="Layer 2"><g id="BACKGROUND_2" data-name="BACKGROUND 2"><polygon class="cls-1" points="236.77 39.1 233.46 35.79 230.31 38.94 227.15 35.79 223.84 39.1 226.99 42.26 223.84 45.41 227.15 48.72 230.31 45.57 233.46 48.72 236.77 45.41 233.62 42.26 236.77 39.1"/><polygon class="cls-1" points="34.46 158.31 31.15 155 28 158.15 24.84 155 21.53 158.31 24.68 161.46 21.53 164.62 24.84 167.93 28 164.78 31.15 167.93 34.46 164.62 31.31 161.46 34.46 158.31"/><polygon class="cls-1" points="94.68 17.18 91.37 13.86 88.21 17.02 85.06 13.86 81.74 17.18 84.9 20.33 81.74 23.49 85.06 26.8 88.21 23.64 91.37 26.8 94.68 23.49 91.53 20.33 94.68 17.18"/><polygon class="cls-1" points="302.78 182.59 299.47 179.28 296.31 182.44 293.15 179.28 289.84 182.59 293 185.75 289.84 188.9 293.15 192.22 296.31 189.06 299.47 192.22 302.78 188.9 299.62 185.75 302.78 182.59"/><g class="cls-2"><path class="cls-3" d="M34.46,53.56a4.84,4.84,0,1,1,4.84-4.84A4.84,4.84,0,0,1,34.46,53.56Zm0-7.67a2.84,2.84,0,1,0,2.84,2.83A2.83,2.83,0,0,0,34.46,45.89Z"/></g><g class="cls-2"><path class="cls-3" d="M174.87,9.67a4.84,4.84,0,1,1,4.84-4.84A4.84,4.84,0,0,1,174.87,9.67Zm0-7.67a2.84,2.84,0,1,0,2.84,2.83A2.83,2.83,0,0,0,174.87,2Z"/></g><g class="cls-2"><path class="cls-3" d="M310.39,77.38a4.84,4.84,0,1,1,4.83-4.83A4.84,4.84,0,0,1,310.39,77.38Zm0-7.67a2.84,2.84,0,1,0,2.83,2.84A2.84,2.84,0,0,0,310.39,69.71Z"/></g><g class="cls-2"><path class="cls-3" d="M248.74,157.15a4.83,4.83,0,1,1,4.84-4.83A4.84,4.84,0,0,1,248.74,157.15Zm0-7.66a2.83,2.83,0,1,0,2.84,2.83A2.83,2.83,0,0,0,248.74,149.49Z"/></g><g class="cls-2"><path class="cls-3" d="M81.74,218.29a4.83,4.83,0,1,1,4.84-4.83A4.83,4.83,0,0,1,81.74,218.29Zm0-7.66a2.83,2.83,0,1,0,2.84,2.83A2.83,2.83,0,0,0,81.74,210.63Z"/></g><circle class="cls-1" cx="90.65" cy="51.67" r="8.99"/><circle class="cls-1" cx="95.12" cy="155.15" r="4.52"/><path class="cls-1" d="M324.27,140.58a4.53,4.53,0,1,1-4.52-4.52A4.52,4.52,0,0,1,324.27,140.58Z"/><path class="cls-1" d="M9,82.68a4.52,4.52,0,1,1-4.52-4.52A4.52,4.52,0,0,1,9,82.68Z"/><path class="cls-1" d="M234.83,82.68a4.53,4.53,0,1,1-4.53-4.52A4.52,4.52,0,0,1,234.83,82.68Z"/><circle class="cls-1" cx="220.89" cy="208.63" r="6.8"/><path class="cls-4" d="M50.34,152.7V131.62H9V114.79L56.42,54H69.3v60.68H81.74v17H69.3V152.7ZM28,114.65H52.46v-32Z"/><path class="cls-4" d="M271.09,152.7V131.62h-41.3V114.79L277.17,54H290v60.68h12.45v17H290V152.7Zm-22.35-38h24.47v-32Z"/><path class="cls-5" d="M230.35,159.36l.37-.34a1.37,1.37,0,0,0,.09-1.94l-7.59-8.28A61.72,61.72,0,1,0,208.81,162l7.58,8.29a1.37,1.37,0,0,0,1.94.08l.37-.34,56.22,61.42h21.39Z"/><path class="cls-6" d="M303.12,238.92l-91.58-91.59L199.76,159.1l91.59,91.59a8.33,8.33,0,0,0,12.24-.51h0A8.33,8.33,0,0,0,303.12,238.92Z"/><path class="cls-7" d="M191.27,153.42l11.06,11.05a1.43,1.43,0,0,0,2,0l12.54-12.53a1.46,1.46,0,0,0,0-2.05l-11.06-11Z"/><polygon class="cls-8" points="207.6 140.58 209 141.99 197.16 159.3 191.95 154.09 207.6 140.58"/><polygon class="cls-9" points="204.75 164.09 216.53 152.32 217.33 153.12 208.13 167.47 204.75 164.09"/><path class="cls-10" d="M155.77,38.21a65.12,65.12,0,1,0,65.12,65.12A65.12,65.12,0,0,0,155.77,38.21Zm0,116.79a51.67,51.67,0,1,1,51.66-51.67A51.66,51.66,0,0,1,155.77,155Z"/><circle class="cls-1" cx="155.77" cy="103.33" r="51.66"/><path class="cls-4" d="M121.48,69.05c-7.47,7.47-12,15.09-10,17s9.56-2.56,17-10,12-15.09,10-17S129,61.57,121.48,69.05Z"/></g></g></svg>