<svg xmlns="http://www.w3.org/2000/svg" xmlns:xlink="http://www.w3.org/1999/xlink" viewBox="0 0 661.88 410.91"><defs><style>.cls-1,.cls-12{fill:none;}.cls-2{isolation:isolate;}.cls-3{clip-path:url(#clip-path);}.cls-4{fill:#ececec;}.cls-5{fill:#ffd68e;}.cls-6{fill:#e38420;}.cls-7{fill:#f5dc3a;}.cls-8{fill:#00bf97;}.cls-9{fill:#00d6a9;}.cls-10{fill:url(#linear-gradient);}.cls-11,.cls-42{opacity:0.5;mix-blend-mode:multiply;}.cls-12{opacity:0;}.cls-13,.cls-14,.cls-15,.cls-16,.cls-17,.cls-18,.cls-19,.cls-20,.cls-21,.cls-22,.cls-23,.cls-24,.cls-25,.cls-26,.cls-27,.cls-28,.cls-29,.cls-30,.cls-31,.cls-32,.cls-33,.cls-34,.cls-35,.cls-36,.cls-37,.cls-38{fill:#272425;}.cls-13{opacity:0.04;}.cls-14{opacity:0.08;}.cls-15{opacity:0.12;}.cls-16{opacity:0.15;}.cls-17{opacity:0.19;}.cls-18{opacity:0.23;}.cls-19{opacity:0.27;}.cls-20{opacity:0.31;}.cls-21{opacity:0.35;}.cls-22{opacity:0.38;}.cls-23{opacity:0.42;}.cls-24{opacity:0.46;}.cls-25{opacity:0.5;}.cls-26{opacity:0.54;}.cls-27{opacity:0.58;}.cls-28{opacity:0.62;}.cls-29{opacity:0.65;}.cls-30{opacity:0.69;}.cls-31{opacity:0.73;}.cls-32{opacity:0.77;}.cls-33{opacity:0.81;}.cls-34{opacity:0.85;}.cls-35{opacity:0.88;}.cls-36{opacity:0.92;}.cls-37{opacity:0.96;}.cls-39{fill:#40484e;}.cls-40{fill:url(#Безымянный_градиент_10);}.cls-41{fill:#f0f1f1;}.cls-42{fill:url(#radial-gradient);}.cls-43{fill:#cfe2ff;}</style><clipPath id="clip-path" transform="translate(0 -65.72)"><rect class="cls-1" x="1.6" width="660.29" height="399.79"/></clipPath><linearGradient id="linear-gradient" x1="-743.04" y1="244.61" x2="-712.3" y2="244.61" gradientTransform="translate(1053.94 -147.45) rotate(-0.31)" gradientUnits="userSpaceOnUse"><stop offset="0" stop-color="#fffdf9"/><stop offset="1" stop-color="#e3e0d9"/></linearGradient><linearGradient id="Безымянный_градиент_10" x1="320.75" y1="94.69" x2="334.31" y2="94.69" gradientUnits="userSpaceOnUse"><stop offset="0.04" stop-color="#2546ff"/><stop offset="1" stop-color="#0081ff"/></linearGradient><radialGradient id="radial-gradient" cx="-367.7" cy="-389.79" r="6.86" gradientTransform="matrix(0.69, -0.72, 0.72, 0.69, 863.38, 98.75)" gradientUnits="userSpaceOnUse"><stop offset="0.94" stop-color="#fff"/><stop offset="0.95" stop-color="#c2c2c2"/><stop offset="0.97" stop-color="#5b5b5b"/><stop offset="0.99" stop-color="#191919"/><stop offset="1"/></radialGradient></defs><title>Asset 1hero_rocket</title><g class="cls-2"><g id="Layer_2" data-name="Layer 2"><g id="OBJECTS"><g class="cls-3"><circle class="cls-4" cx="588.04" cy="402.79" r="73.84" transform="translate(-76.81 80.16) rotate(-13.28)"/><path class="cls-4" d="M591.69,308.89a69.89,69.89,0,0,0-32.36,7.91A51,51,0,0,0,467,291a37.77,37.77,0,0,0-30.47-21c.06-.82.1-1.65.1-2.49a34.63,34.63,0,0,0-47.42-32.18,32.87,32.87,0,0,0-20.76-15.48,20.7,20.7,0,0,0,2.79-4,21.32,21.32,0,0,0-37.73-19.88c-.13.25-.22.5-.34.75A32.8,32.8,0,0,0,284.92,239a22.33,22.33,0,0,0-35.8,17.82c0,.64,0,1.28.09,1.91a40.21,40.21,0,0,0-8.55-.93A39.72,39.72,0,0,0,205,280a53.62,53.62,0,0,0-97.11,27.19,73.84,73.84,0,1,0,34.34,93.39h139a73.83,73.83,0,0,0,113.81,0h82.65V425h60.93a70.19,70.19,0,1,0,53.1-116.08Z" transform="translate(0 -65.72)"/><path class="cls-4" d="M254.33,230.86a8.22,8.22,0,1,0-8.22-8.22A8.22,8.22,0,0,0,254.33,230.86Z" transform="translate(0 -65.72)"/><path class="cls-4" d="M343.64,179.5c-7-31.57-6-50.95-6-50.95l-10.17-.86-9.48,1.2s1.1,19-5.91,50.61-24,49.1-24,49.1h79.5S350.65,211.06,343.64,179.5Z" transform="translate(0 -65.72)"/><path class="cls-5" d="M337.62,136.2a38.52,38.52,0,0,0-19.58.07,107.17,107.17,0,0,0,3,22.66c4,16.54,7.13,22.64,7.13,22.64s3.08-6.13,6.79-22.69a107,107,0,0,0,2.67-22.68Z" transform="translate(0 -65.72)"/><path class="cls-6" d="M321.57,135.5a108.81,108.81,0,0,0,2.91,21c1.32,5.52,2.55,9.85,3.59,13.16,1-3.3,2.16-7.64,3.4-13.18a108.25,108.25,0,0,0,2.6-21,39.68,39.68,0,0,0-6.25-.48A38.36,38.36,0,0,0,321.57,135.5Z" transform="translate(0 -65.72)"/><path class="cls-7" d="M325.14,135.08a107.78,107.78,0,0,0,2.78,19.28.08.08,0,1,0,.08,0,106.18,106.18,0,0,0,2.5-19.3c-.88-.06-1.77-.09-2.68-.09S326,135,325.14,135.08Z" transform="translate(0 -65.72)"/><path class="cls-8" d="M314.25,123.36a101.38,101.38,0,0,0,3.68,13.22c-.34.1-.68.22-1,.33a115.1,115.1,0,0,1-4.9-11.72A20.56,20.56,0,0,1,314.25,123.36Z" transform="translate(0 -65.72)"/><path class="cls-9" d="M305.8,144.26a0,0,0,0,1-.06,0A20.95,20.95,0,0,1,312,125.19a115.1,115.1,0,0,0,4.9,11.72A25.41,25.41,0,0,0,305.8,144.26Z" transform="translate(0 -65.72)"/><path class="cls-10" d="M337.62,136.41c4.08-11.62,6.23-23.84,5-35.93a59.29,59.29,0,0,0-15.34-34.76,58.91,58.91,0,0,0-14.84,34.86c-1,12.11,1.32,24.31,5.56,35.9a33.23,33.23,0,0,1,19.58-.07Z" transform="translate(0 -65.72)"/><path class="cls-9" d="M337.62,136.41a101.13,101.13,0,0,0,3.69-13.23,21,21,0,0,1,8.5,20.9s0,0-.06,0A25.63,25.63,0,0,0,337.62,136.41Z" transform="translate(0 -65.72)"/><path class="cls-9" d="M337.62,136.41a101.13,101.13,0,0,0,3.69-13.23,21,21,0,0,1,8.5,20.9s0,0-.06,0A25.63,25.63,0,0,0,337.62,136.41Z" transform="translate(0 -65.72)"/><path class="cls-8" d="M341.31,123.18a101.13,101.13,0,0,1-3.69,13.23c.35.1.69.22,1,.33A115,115,0,0,0,343.54,125,21.78,21.78,0,0,0,341.31,123.18Z" transform="translate(0 -65.72)"/><path class="cls-9" d="M349.75,144.09s.06,0,.06,0A20.95,20.95,0,0,0,343.54,125a115,115,0,0,1-4.89,11.72A25.29,25.29,0,0,1,349.75,144.09Z" transform="translate(0 -65.72)"/><path class="cls-9" d="M327.32,65.72a56.11,56.11,0,0,0-9.78,15l19.78-.07A56.66,56.66,0,0,0,327.32,65.72Z" transform="translate(0 -65.72)"/><path class="cls-4" d="M320.39,134.7c0-.11-.1-.24-.17-.41-.19-.48-.5-1.17-.83-2.09-.16-.46-.35-1-.55-1.51s-.39-1.16-.61-1.8-.41-1.33-.64-2.06-.42-1.5-.64-2.3-.42-1.66-.64-2.53-.39-1.79-.57-2.73c-.37-1.88-.7-3.88-.95-6s-.41-4.24-.46-6.44a62.46,62.46,0,0,1,.21-6.69c.2-2.22.47-4.44.83-6.6s.78-4.29,1.29-6.32,1.11-4,1.75-5.78a51.41,51.41,0,0,1,2.09-5,38,38,0,0,1,2.21-4,34,34,0,0,1,2-2.87c.59-.77,1.1-1.34,1.45-1.73l.3-.32c.13-.14.15-.13,0,0l-.25.37c-.29.42-.7,1.06-1.2,1.88s-1.07,1.84-1.67,3-1.21,2.57-1.81,4.09-1.17,3.2-1.71,5-1,3.72-1.44,5.71c-.21,1-.41,2-.59,3.06s-.36,2.09-.51,3.16c-.3,2.12-.56,4.29-.75,6.48s-.27,4.33-.27,6.47.13,4.26.28,6.3.38,4,.65,5.88c.12.94.28,1.84.41,2.72s.28,1.72.44,2.53c.31,1.62.61,3.11.9,4.42.14.65.29,1.26.41,1.83s.27,1.09.38,1.56c.22.94.43,1.67.55,2.18.05.17.08.31.11.43S320.47,134.88,320.39,134.7Z" transform="translate(0 -65.72)"/><g class="cls-11"><path class="cls-12" d="M319.7,95.43a8.25,8.25,0,1,0,8.19-8.27A8.28,8.28,0,0,0,319.7,95.43Z" transform="translate(0 -65.72)"/><path class="cls-13" d="M319.69,95.4a8.24,8.24,0,1,0,8.18-8.27A8.27,8.27,0,0,0,319.69,95.4Z" transform="translate(0 -65.72)"/><path class="cls-14" d="M319.67,95.38a8.24,8.24,0,1,0,8.18-8.27A8.28,8.28,0,0,0,319.67,95.38Z" transform="translate(0 -65.72)"/><path class="cls-15" d="M319.66,95.35a8.24,8.24,0,1,0,8.18-8.27A8.27,8.27,0,0,0,319.66,95.35Z" transform="translate(0 -65.72)"/><path class="cls-16" d="M319.64,95.32a8.24,8.24,0,1,0,8.18-8.27A8.27,8.27,0,0,0,319.64,95.32Z" transform="translate(0 -65.72)"/><path class="cls-17" d="M319.62,95.29A8.25,8.25,0,1,0,327.81,87,8.2,8.2,0,0,0,319.62,95.29Z" transform="translate(0 -65.72)"/><path class="cls-18" d="M319.61,95.27A8.24,8.24,0,1,0,327.79,87,8.28,8.28,0,0,0,319.61,95.27Z" transform="translate(0 -65.72)"/><path class="cls-19" d="M319.59,95.24A8.24,8.24,0,1,0,327.77,87,8.27,8.27,0,0,0,319.59,95.24Z" transform="translate(0 -65.72)"/><path class="cls-20" d="M319.58,95.21a8.24,8.24,0,1,0,8.18-8.27A8.27,8.27,0,0,0,319.58,95.21Z" transform="translate(0 -65.72)"/><path class="cls-21" d="M319.56,95.18a8.24,8.24,0,1,0,8.18-8.26A8.27,8.27,0,0,0,319.56,95.18Z" transform="translate(0 -65.72)"/><path class="cls-22" d="M319.54,95.16a8.25,8.25,0,1,0,8.19-8.27A8.29,8.29,0,0,0,319.54,95.16Z" transform="translate(0 -65.72)"/><path class="cls-23" d="M319.53,95.13a8.24,8.24,0,1,0,8.18-8.27A8.27,8.27,0,0,0,319.53,95.13Z" transform="translate(0 -65.72)"/><path class="cls-24" d="M319.51,95.1a8.24,8.24,0,1,0,8.18-8.27A8.27,8.27,0,0,0,319.51,95.1Z" transform="translate(0 -65.72)"/><path class="cls-25" d="M319.5,95.08a8.24,8.24,0,1,0,8.18-8.27A8.26,8.26,0,0,0,319.5,95.08Z" transform="translate(0 -65.72)"/><path class="cls-26" d="M319.48,95.05a8.24,8.24,0,1,0,8.18-8.27A8.28,8.28,0,0,0,319.48,95.05Z" transform="translate(0 -65.72)"/><path class="cls-27" d="M319.46,95a8.25,8.25,0,1,0,8.19-8.27A8.28,8.28,0,0,0,319.46,95Z" transform="translate(0 -65.72)"/><path class="cls-28" d="M319.45,95a8.24,8.24,0,1,0,8.18-8.27A8.27,8.27,0,0,0,319.45,95Z" transform="translate(0 -65.72)"/><path class="cls-29" d="M319.43,95a8.24,8.24,0,1,0,8.18-8.27A8.28,8.28,0,0,0,319.43,95Z" transform="translate(0 -65.72)"/><path class="cls-30" d="M319.42,94.94a8.24,8.24,0,1,0,8.18-8.27A8.27,8.27,0,0,0,319.42,94.94Z" transform="translate(0 -65.72)"/><path class="cls-31" d="M319.4,94.91a8.24,8.24,0,1,0,8.18-8.27A8.27,8.27,0,0,0,319.4,94.91Z" transform="translate(0 -65.72)"/><path class="cls-32" d="M319.38,94.88a8.25,8.25,0,1,0,8.19-8.27A8.28,8.28,0,0,0,319.38,94.88Z" transform="translate(0 -65.72)"/><path class="cls-33" d="M319.37,94.86a8.24,8.24,0,1,0,8.18-8.27A8.28,8.28,0,0,0,319.37,94.86Z" transform="translate(0 -65.72)"/><path class="cls-34" d="M319.35,94.83a8.24,8.24,0,1,0,8.18-8.27A8.27,8.27,0,0,0,319.35,94.83Z" transform="translate(0 -65.72)"/><path class="cls-35" d="M319.34,94.8a8.24,8.24,0,1,0,8.18-8.27A8.27,8.27,0,0,0,319.34,94.8Z" transform="translate(0 -65.72)"/><path class="cls-36" d="M319.32,94.77a8.24,8.24,0,1,0,8.18-8.26A8.27,8.27,0,0,0,319.32,94.77Z" transform="translate(0 -65.72)"/><path class="cls-37" d="M319.3,94.75a8.25,8.25,0,1,0,8.19-8.27A8.29,8.29,0,0,0,319.3,94.75Z" transform="translate(0 -65.72)"/><path class="cls-38" d="M319.29,94.72a8.24,8.24,0,1,0,8.18-8.27A8.27,8.27,0,0,0,319.29,94.72Z" transform="translate(0 -65.72)"/></g><path class="cls-39" d="M319.29,94.72a8.24,8.24,0,1,0,8.18-8.27A8.27,8.27,0,0,0,319.29,94.72Z" transform="translate(0 -65.72)"/><path class="cls-40" d="M328.27,101.43a6.78,6.78,0,1,1,6-6.07A6.81,6.81,0,0,1,328.27,101.43Z" transform="translate(0 -65.72)"/><path class="cls-41" d="M323.86,98.52l-.08,0c-.06,0-.14-.08-.23-.15l-.34-.27a3.72,3.72,0,0,1-.38-.4,4.69,4.69,0,0,1-.39-.54,4.31,4.31,0,0,1-.34-.68,5.77,5.77,0,0,1-.23-.77,5.7,5.7,0,0,1-.09-.83v-.41c0-.15,0-.29.05-.43a4,4,0,0,1,.19-.78,4.2,4.2,0,0,1,.65-1.25,4.08,4.08,0,0,1,.36-.42,3.34,3.34,0,0,1,.32-.28c.19-.15.3-.22.3-.22l-.16.33a6.42,6.42,0,0,0-.38.84c-.07.17-.13.36-.19.56s-.11.42-.15.64a5,5,0,0,0-.1.69c0,.12,0,.23,0,.34v.37a6.37,6.37,0,0,0,.18,1.39c.06.21.12.43.19.62s.15.39.22.56l.23.47.19.35Z" transform="translate(0 -65.72)"/><path id="circle_shadow" data-name="circle shadow" class="cls-42" d="M332.75,90.39a6.77,6.77,0,1,0,.07,8.56A6.78,6.78,0,0,0,332.75,90.39Zm-.23,8.32a6.41,6.41,0,1,1-.06-8.07A6.39,6.39,0,0,1,332.52,98.71Z" transform="translate(0 -65.72)"/><path class="cls-8" d="M327.92,144.29a51.35,51.35,0,0,0-.19-21.06,51.53,51.53,0,0,0,.12,21.06A0,0,0,0,0,327.92,144.29Z" transform="translate(0 -65.72)"/><path class="cls-43" d="M425.94,282.63c8.15,1.82,15.6,6.21,22.1,10.63a30.71,30.71,0,0,0-46.11-10.32C409.7,281.71,417.8,280.81,425.94,282.63Z" transform="translate(0 -65.72)"/><path class="cls-43" d="M120.89,351.88a75.77,75.77,0,0,1,29.82,20.34c-.37-4.75-17-32.1-48-34.09-24.63-1.58-47,10.44-60.29,29.16A76.1,76.1,0,0,1,120.89,351.88Z" transform="translate(0 -65.72)"/><path class="cls-43" d="M480.68,375.86a75.81,75.81,0,0,1,34.84,9.44A55.32,55.32,0,0,1,594.41,341a50.5,50.5,0,0,0-82.52,33.79,69.51,69.51,0,0,0-100.32,41.38A76.09,76.09,0,0,1,480.68,375.86Z" transform="translate(0 -65.72)"/></g></g></g></g></svg>